<mxfile host="app.diagrams.net" modified="2021-08-17T11:17:24.474Z" agent="5.0 (Macintosh; Intel Mac OS X 10_15_7) AppleWebKit/537.36 (KHTML, like Gecko) Chrome/92.0.4515.131 Safari/537.36" etag="FOS97qzRGq0BmjA1wNp6" version="14.9.7" type="github">
  <diagram id="NAEQiIchZQ37x1jHbAWa" name="Page-1">
    <mxGraphModel dx="1426" dy="669" grid="1" gridSize="10" guides="1" tooltips="1" connect="1" arrows="1" fold="1" page="1" pageScale="1" pageWidth="827" pageHeight="1169" math="0" shadow="0">
      <root>
        <mxCell id="0" />
        <mxCell id="1" parent="0" />
        <mxCell id="fmAIupHOhaQJcWrB7zc3-4" value="" style="edgeStyle=orthogonalEdgeStyle;rounded=0;orthogonalLoop=1;jettySize=auto;html=1;" edge="1" parent="1" source="fmAIupHOhaQJcWrB7zc3-1">
          <mxGeometry relative="1" as="geometry">
            <mxPoint x="390" y="150" as="targetPoint" />
          </mxGeometry>
        </mxCell>
        <mxCell id="fmAIupHOhaQJcWrB7zc3-1" value="create user" style="strokeWidth=2;html=1;shape=mxgraph.flowchart.start_1;whiteSpace=wrap;" vertex="1" parent="1">
          <mxGeometry x="340" y="20" width="100" height="60" as="geometry" />
        </mxCell>
        <mxCell id="fmAIupHOhaQJcWrB7zc3-8" value="" style="edgeStyle=orthogonalEdgeStyle;rounded=0;orthogonalLoop=1;jettySize=auto;html=1;" edge="1" parent="1" source="fmAIupHOhaQJcWrB7zc3-5" target="fmAIupHOhaQJcWrB7zc3-6">
          <mxGeometry relative="1" as="geometry">
            <mxPoint x="390" y="360" as="targetPoint" />
          </mxGeometry>
        </mxCell>
        <mxCell id="fmAIupHOhaQJcWrB7zc3-5" value="create do&lt;br&gt;create access token&lt;br&gt;create refresh token" style="rounded=1;whiteSpace=wrap;html=1;absoluteArcSize=1;arcSize=14;strokeWidth=2;" vertex="1" parent="1">
          <mxGeometry x="340" y="160" width="100" height="100" as="geometry" />
        </mxCell>
        <mxCell id="fmAIupHOhaQJcWrB7zc3-6" value="store user DO&lt;br&gt;store refresh token&lt;br&gt;" style="strokeWidth=2;html=1;shape=mxgraph.flowchart.database;whiteSpace=wrap;" vertex="1" parent="1">
          <mxGeometry x="354" y="370" width="60" height="60" as="geometry" />
        </mxCell>
      </root>
    </mxGraphModel>
  </diagram>
</mxfile>
